<svg width="327" height="62" viewBox="0 0 327 62" fill="none" xmlns="http://www.w3.org/2000/svg">
<path d="M67.3475 12.7063L67.3143 12.6546H67.2958L53.8071 2.58333L40.2336 8.56191L14.356 0L0 16.4854L33.3139 62L40.3258 59.2358L69.5175 14.3264L67.3475 12.7063ZM19.7071 24.4937L29.3024 51.7552L5.64274 19.4414L19.7071 24.4937ZM34.6499 58.4461L22.5008 23.9623L38.6946 12.9167L34.7163 58.4202L34.6499 58.4461ZM50.4857 23.7039L37.6465 57.2024L41.4699 13.4998L50.4857 23.7039ZM53.2019 24.4863L63.6386 18.1793L44.1086 48.2345L53.2019 24.4863ZM64.694 14.2526L52.438 21.6594L42.6398 10.5917L53.4381 5.83464L64.694 14.2526ZM15.2417 3.27714L37.1705 10.5437L20.6076 21.8402L4.20714 15.9355L15.2417 3.27714Z" fill="white"/>
<path d="M102.769 46.0608C100.367 44.7036 98.4124 42.6761 97.1444 40.2261C95.801 37.7043 95.1294 34.7654 95.1294 31.4096C95.1294 27.9799 95.8306 24.9611 97.2329 22.3531C98.58 19.8031 100.637 17.6982 103.156 16.2934C105.703 14.8615 108.655 14.1443 112.013 14.1418C113.845 14.134 115.666 14.4116 117.412 14.9648C119.027 15.4638 120.546 16.2297 121.907 17.2308L120.926 19.0391C118.515 17.1938 115.647 16.2712 112.323 16.2712C110.179 16.2258 108.079 16.8843 106.345 18.146C104.581 19.4796 103.229 21.283 102.444 23.3496C101.506 25.7724 101.047 28.3543 101.093 30.9519C101.043 33.5711 101.519 36.1737 102.492 38.606C103.313 40.6853 104.713 42.4859 106.526 43.7948C108.362 45.0606 110.551 45.713 112.781 45.6585C114.568 45.664 116.333 45.2693 117.948 44.5034C119.491 43.8005 120.879 42.7968 122.029 41.551L123.103 42.9903C121.707 44.6483 119.936 45.95 117.937 46.7878C115.766 47.6834 113.435 48.1266 111.087 48.0905C108.184 48.1537 105.316 47.4538 102.769 46.0608Z" fill="white"/>
<path d="M142.312 24.9402L141.788 26.8371C140.687 26.2869 139.473 25.9977 138.242 25.992C136.323 25.992 134.524 27.1348 132.846 29.4205V47.5592H127.517V24.5048H129.222L131.876 28.8042C132.69 27.44 133.757 26.2439 135.02 25.2798C136.061 24.4799 137.334 24.0396 138.648 24.025C139.924 24.0377 141.18 24.3513 142.312 24.9402Z" fill="white"/>
<path d="M165.046 24.5048L156.037 47.4448L154.871 50.0982C153.114 54.2119 150.56 56.933 147.209 58.2616L146.612 56.5012C149.222 55.4162 151.212 53.2733 152.583 50.0724L153.406 48.1533L153.107 47.4448L143.984 24.5048H149.889L155.447 39.9642L156.107 42.3445L157.687 38.0673L162.673 24.5048H165.046Z" fill="white"/>
<path d="M170.515 47.4559C169.062 47.0603 167.674 46.4548 166.396 45.6586L167.083 44.0127C168.347 44.7829 169.714 45.3718 171.142 45.7619C172.39 46.135 173.682 46.3386 174.984 46.3672C176.522 46.3672 177.677 46.0129 178.449 45.3043C178.82 44.9778 179.115 44.5748 179.314 44.123C179.514 43.6712 179.613 43.1815 179.604 42.6878C179.61 42.1929 179.508 41.7028 179.307 41.2506C179.106 40.7985 178.809 40.395 178.438 40.0675C177.346 39.1467 176.119 38.3998 174.799 37.8533L173.611 37.3956C171.837 36.6787 170.204 35.6528 168.788 34.3658C167.802 33.3818 167.195 32.0809 167.076 30.6931C166.956 29.3053 167.331 27.9199 168.134 26.7818C168.927 25.7884 169.993 25.0493 171.201 24.6561C172.677 24.1584 174.228 23.9187 175.785 23.9475C177.114 23.9444 178.437 24.1219 179.719 24.4753C180.938 24.8106 182.107 25.307 183.195 25.9515L182.579 27.5974C181.559 27.0052 180.468 26.5451 179.331 26.2283C178.203 25.8909 177.033 25.7133 175.855 25.7005C175.083 25.6829 174.317 25.8354 173.611 26.1471C173.016 26.4101 172.505 26.8329 172.135 27.3686C171.703 28.0087 171.535 28.7909 171.665 29.5521C171.796 30.3132 172.215 30.9946 172.836 31.454C173.938 32.3265 175.154 33.0453 176.449 33.5907L177.431 34.0041C178.693 34.5285 179.903 35.171 181.044 35.9231C181.961 36.5336 182.737 37.3325 183.321 38.2666C183.89 39.2242 184.179 40.3227 184.155 41.4367C184.175 42.7014 183.772 43.9366 183.011 44.9463C182.184 46.0112 181.076 46.8231 179.811 47.2898C178.279 47.8683 176.651 48.1477 175.013 48.1128C173.491 48.1025 171.977 47.8814 170.515 47.4559Z" fill="white"/>
<path d="M191.074 46.345C190.036 45.1714 189.518 43.4713 189.521 41.2447V26.1138H186.591V24.8996L189.794 24.5121L193.019 19.1904L194.824 19.2827V24.5047H201.836V26.1064H194.824V41.2004C194.824 42.6028 195.09 43.6362 195.614 44.2968C195.898 44.6357 196.259 44.9027 196.666 45.0758C197.073 45.249 197.516 45.3235 197.957 45.2932C198.704 45.3076 199.446 45.176 200.142 44.9057C200.884 44.5877 201.592 44.1971 202.257 43.7395L202.995 44.9721C202.017 45.8992 200.896 46.6608 199.673 47.227C198.414 47.8148 197.04 48.1149 195.651 48.1053C193.636 48.1053 192.11 47.5185 191.074 46.345Z" fill="white"/>
<path d="M224.488 41.2447V47.5591H222.798L220.214 43.1306C219.052 44.6219 217.621 45.8835 215.996 46.8506C214.486 47.7013 212.777 48.138 211.043 48.1164C209.988 48.1283 208.944 47.8985 207.991 47.4447C207.094 47.019 206.329 46.3584 205.777 45.5331C205.218 44.6774 204.931 43.6726 204.954 42.6508C204.954 40.1044 206.144 38.1361 208.523 36.746C210.902 35.356 214.446 34.4149 219.155 33.9228V32.1625C219.155 27.9553 217.646 25.8505 214.627 25.8481C213.254 25.8581 211.895 26.1182 210.615 26.6157C209.305 27.1046 208.065 27.7621 206.925 28.5716L206.238 26.97C207.622 26.07 209.109 25.3402 210.667 24.7963C212.26 24.2506 213.933 23.9774 215.616 23.9881C218.709 23.9881 220.957 24.7262 222.362 26.2023C223.767 27.6785 224.468 29.8313 224.466 32.6607L224.488 41.2447ZM216.494 44.5662C217.459 44.0167 218.354 43.3525 219.159 42.5881V35.4285C216.17 35.7656 213.868 36.4447 212.254 37.4657C210.64 38.4867 209.832 39.8817 209.829 41.6507C209.812 42.1342 209.894 42.6162 210.071 43.0665C210.248 43.5167 210.516 43.9255 210.859 44.2672C211.22 44.6121 211.647 44.8803 212.114 45.0553C212.582 45.2304 213.08 45.3088 213.579 45.2858C214.598 45.2967 215.602 45.0436 216.494 44.5514V44.5662Z" fill="white"/>
<path d="M230.64 13.4112H235.969V47.5592H230.64V13.4112Z" fill="white"/>
<path d="M263.895 14.6476H269.46V47.5593H263.895V31.9818H248.687V47.5593H243.107V14.6476H248.687V29.893H263.895V14.6476Z" fill="white"/>
<path d="M297.334 24.5048V47.5592H295.64L292.987 43.031C291.832 44.5851 290.352 45.8685 288.651 46.7916C286.995 47.656 285.152 48.0996 283.285 48.0833C281.987 48.1181 280.704 47.8059 279.568 47.1791C278.537 46.5918 277.705 45.7086 277.181 44.6437C276.612 43.4641 276.33 42.1667 276.358 40.8573V24.4827H281.639V40.4218C281.639 41.898 282.008 43.0458 282.746 43.865C283.484 44.6843 284.539 45.1001 285.912 45.1124C287.031 45.1259 288.136 44.8729 289.138 44.3743C290.211 43.8052 291.178 43.0562 291.998 42.16V24.5048H297.334Z" fill="white"/>
<path d="M321.496 25.3388C322.956 26.3257 324.107 27.7047 324.817 29.3172C325.661 31.337 326.072 33.5112 326.024 35.6996C325.977 37.888 325.471 40.0422 324.541 42.0235C323.581 43.9076 322.085 45.4653 320.241 46.5C318.206 47.6066 315.914 48.1577 313.598 48.098C311.812 48.0877 310.041 47.7552 308.373 47.1163C306.696 46.4748 305.143 45.5484 303.782 44.378V13.4112H309.089V27.4535C310.122 26.4349 311.317 25.5933 312.624 24.9624C313.911 24.3088 315.332 23.9639 316.776 23.9549C318.452 23.9335 320.096 24.4156 321.496 25.3388ZM317.436 44.998C318.521 44.1053 319.33 42.9227 319.769 41.588C320.344 39.9034 320.619 38.1309 320.581 36.3512C320.616 34.6004 320.366 32.8555 319.843 31.1845C319.449 29.8784 318.696 28.7095 317.669 27.8114C316.817 27.1202 315.771 26.713 314.676 26.6468C313.581 26.5806 312.493 26.8588 311.565 27.4424C310.668 27.9689 309.841 28.6062 309.103 29.3393V43.8871C309.643 44.6215 310.359 45.2079 311.185 45.5921C312.02 45.991 312.934 46.1978 313.86 46.1974C315.154 46.2181 316.417 45.7948 317.436 44.998Z" fill="white"/>
</svg>
